<?xml version="1.0" encoding="UTF-8"?>
<svg id="Layer_1" data-name="Layer 1" xmlns="http://www.w3.org/2000/svg" viewBox="0 0 144 60.14">
  <defs>
    <style>
      .cls-1 {
        fill: #1F2A37;
      }
    </style>
  </defs>
  <g>
    <path class="cls-1" d="M4.88,0c2.65,0,4.82,2.05,4.82,4.82s-2.23,4.82-4.82,4.82S0,7.58,0,4.82,2.17,0,4.88,0"/>
    <rect class="cls-1" x=".9" y="13.85" width="7.95" height="31.18"/>
    <path class="cls-1" d="M71.55,31.24h-24.26c.24,1.75,1.93,7.89,9.51,7.89,5.48,0,8.19-3.43,8.43-3.79l5,4.39c-.96,1.2-4.39,6.14-14.15,6.14s-16.85-6.68-16.85-16.55,7.04-16.31,16.37-16.31c10.66,0,16.01,7.77,16.01,17.1,0,.36-.06.78-.06,1.14M55.83,19.62c-6.38,0-8.01,4.39-8.43,5.96h16.61c-.18-1.02-1.68-5.96-8.19-5.96"/>
    <path class="cls-1" d="M83.07,13.85v6.26c.78-3.31,4.15-7.04,9.45-7.04.72,0,1.5-.06,2.23.06l-.54,7.65c-.36,0-.66-.06-.96-.06-5.72,0-9.57,1.51-9.57,6.74v17.58h-8.01V13.85h7.4Z"/>
    <path class="cls-1" d="M103.14,0c2.65,0,4.82,2.05,4.82,4.82s-2.23,4.82-4.82,4.82-4.88-2.05-4.88-4.82,2.17-4.82,4.88-4.82"/>
    <rect class="cls-1" x="99.17" y="13.85" width="7.95" height="31.18"/>
    <path class="cls-1" d="M136.81,16.07l-3.13,5.66c-.84-.6-4.15-2.59-8.25-2.59-2.59,0-5.06.96-5.06,2.53,0,2.11,3.01,2.59,8.31,4.09,5.42,1.57,9.45,4.45,9.45,9.81s-4.69,10.29-14.03,10.29c-7.22,0-12.22-3.31-13.36-4.03l3.37-6.26c2.11,1.44,5.54,3.25,9.81,3.25,3.97,0,6.08-1.08,6.08-3.01,0-2.23-4.21-3.19-8.55-4.58-4.63-1.5-9.33-3.37-9.33-8.91s5.84-9.33,13.18-9.33c5.84,0,10.17,2.17,11.5,3.07"/>
    <path class="cls-1" d="M140.92,8.72h.47c.2.04.4.07.59.13,1.4.44,2.23,1.86,1.97,3.35-.24,1.34-1.41,2.36-2.72,2.39-1.4.03-2.61-.97-2.89-2.34-.03-.14-.05-.27-.07-.41v-.37s.02-.08.02-.11c.11-1.27,1.05-2.32,2.3-2.57.11-.02.22-.04.33-.06M143.56,11.83c0-.93-.33-1.66-.9-2.14-.57-.48-1.23-.67-1.97-.52-1.71.36-2.51,2.37-1.56,3.84.69,1.07,2,1.45,3.07.88.89-.48,1.32-1.26,1.36-2.07"/>
    <path class="cls-1" d="M140.02,10.05h.38c.34,0,.69,0,1.03,0,.15,0,.3.02.44.05.26.07.42.24.48.5.09.38.04.72-.3.96-.02.01-.03.03-.08.07.02,0,.04,0,.05.02.23.11.31.31.31.56,0,.19.01.38.04.57.01.08.07.16.1.24.01.04.03.07.05.13-.16,0-.3,0-.44,0-.03,0-.07-.04-.07-.07-.03-.15-.06-.31-.08-.46-.01-.15,0-.3-.01-.45-.03-.23-.14-.34-.37-.35-.37-.02-.74,0-1.12,0v1.33h-.4v-3.1ZM140.43,10.39v1.09c.34,0,.66,0,.99,0,.4,0,.58-.2.56-.6,0-.27-.14-.43-.41-.47-.13-.02-.27-.02-.4-.02-.25,0-.5,0-.75,0"/>
    <path class="cls-1" d="M33.38,12.44c2.65,0,4.82,2.05,4.82,4.82s-2.23,4.82-4.82,4.82-4.88-2.05-4.88-4.82,2.17-4.82,4.88-4.82"/>
    <path class="cls-1" d="M26.2,4.35v30.57c0,1.5.54,3.73,3.79,3.73,3.01,0,4.39-1.62,4.76-2.11l4.03,5.66c-.42.48-3.43,3.67-10.23,3.67-7.95,0-10.29-5.3-10.29-9.69v-15.47h-5.42v-6.86h5.42v-4.77l7.95-4.73Z"/>
  </g>
  <g>
    <path class="cls-1" d="M29.13,51.62h2.41l3.32,8.4h-2.18l-.57-1.54h-3.56l-.57,1.54h-2.18l3.31-8.4ZM29.14,56.89h2.39l-1.19-3.24-1.2,3.24Z"/>
    <path class="cls-1" d="M42.14,60.01h-6.3v-8.4h2.03v6.69h4.26v1.71Z"/>
    <path class="cls-1" d="M43.27,51.62h2.08l2.54,5.48,2.54-5.48h2.08v8.4h-2.03v-4.54l-1.9,4.04h-1.36l-1.9-4.04v4.54h-2.03v-8.4Z"/>
    <path class="cls-1" d="M56.81,51.62h2.41l3.32,8.4h-2.18l-.57-1.54h-3.56l-.57,1.54h-2.18l3.31-8.4ZM56.82,56.89h2.39l-1.19-3.24-1.2,3.24Z"/>
    <path class="cls-1" d="M61.85,51.62h2.22l2.1,6.35,2.08-6.35h2.22l-2.97,8.4h-2.68l-2.97-8.4Z"/>
    <path class="cls-1" d="M73.54,60.01h-2.03v-8.4h2.03v8.4Z"/>
    <path class="cls-1" d="M74.56,51.62h2.22l2.1,6.35,2.08-6.35h2.22l-2.97,8.4h-2.68l-2.97-8.4Z"/>
    <path class="cls-1" d="M85.81,51.62h2.41l3.32,8.4h-2.18l-.57-1.54h-3.56l-.57,1.54h-2.18l3.31-8.4ZM85.82,56.89h2.39l-1.19-3.24-1.2,3.24Z"/>
    <path class="cls-1" d="M94.95,55.81c0-2.47,1.9-4.32,4.32-4.32,1.48,0,2.77.7,3.59,1.9l-.8.58c-.69-1-1.64-1.53-2.79-1.53-1.82,0-3.25,1.43-3.25,3.36s1.35,3.37,3.25,3.37,2.81-1.27,2.98-2.5h-2.99v-.93h4.05c0,.09.01.25.01.38,0,2.2-1.51,4-4.06,4s-4.31-1.87-4.31-4.32Z"/>
    <path class="cls-1" d="M108.58,51.62c1.7,0,2.81.96,2.81,2.49,0,1.21-.7,2.07-1.84,2.37l2.08,3.54h-1.21l-1.97-3.41h-2.44v3.41h-1.02v-8.4h3.59ZM106.01,52.54v3.15h2.53c1.18,0,1.78-.63,1.78-1.58s-.61-1.56-1.78-1.56h-2.53Z"/>
    <path class="cls-1" d="M112.56,55.81c0-2.57,1.86-4.32,4.3-4.32s4.3,1.74,4.3,4.32-1.86,4.32-4.3,4.32-4.3-1.75-4.3-4.32ZM116.86,59.19c1.88,0,3.23-1.35,3.23-3.37s-1.35-3.36-3.23-3.36-3.23,1.35-3.23,3.36,1.35,3.37,3.23,3.37Z"/>
    <path class="cls-1" d="M122.81,57.01v-5.4h1.02v5.34c0,1.35.97,2.22,2.49,2.22s2.49-.87,2.49-2.22v-5.34h1.02v5.4c0,1.9-1.37,3.12-3.51,3.12s-3.51-1.22-3.51-3.12Z"/>
    <path class="cls-1" d="M132.02,60.01v-8.4h3.41c1.7,0,2.81.99,2.81,2.58s-1.11,2.58-2.81,2.58h-2.39v3.24h-1.02ZM133.04,55.83h2.36c1.17,0,1.77-.66,1.77-1.64s-.61-1.64-1.77-1.64h-2.36v3.28Z"/>
  </g>
</svg>